<svg width="140" height="33" viewBox="0 0 140 33" fill="none" xmlns="http://www.w3.org/2000/svg">
<g clip-path="url(#clip0_2750_791)">
<path d="M39.9133 23.6046H49.1539V20.9734H42.7311V8.68707H39.9133V23.6046Z" fill="#007EFF"/>
<path d="M54.7069 23.9154C55.8258 23.9154 56.8099 23.6668 57.6594 23.1695C58.5157 22.6654 59.1822 21.9713 59.6588 21.0874C60.1422 20.1964 60.3839 19.1708 60.3839 18.0106C60.3839 16.8572 60.1456 15.8386 59.6691 14.9546C59.1925 14.0637 58.5261 13.3661 57.6697 12.862C56.8203 12.3578 55.8327 12.1057 54.7069 12.1057C53.6019 12.1057 52.6246 12.3544 51.7752 12.8516C50.9258 13.3489 50.2593 14.0429 49.7758 14.9339C49.2924 15.8178 49.0507 16.8434 49.0507 18.0106C49.0507 19.1639 49.2855 20.1861 49.7551 21.0769C50.2316 21.961 50.8947 22.655 51.7441 23.1592C52.5936 23.6634 53.5812 23.9154 54.7069 23.9154ZM54.7069 21.2842C53.8298 21.2842 53.1634 20.9907 52.7076 20.4036C52.2586 19.8097 52.0342 19.012 52.0342 18.0106C52.0342 17.0368 52.2483 16.2495 52.6765 15.6486C53.1116 15.0409 53.7884 14.737 54.7069 14.737C55.5979 14.737 56.2677 15.034 56.7166 15.6279C57.1724 16.2219 57.4004 17.0161 57.4004 18.0106C57.4004 18.9706 57.176 19.7579 56.727 20.3726C56.285 20.9802 55.6116 21.2842 54.7069 21.2842Z" fill="#007EFF"/>
<path d="M65.9562 23.9154C66.4811 23.9154 66.9645 23.8533 67.4066 23.729C67.8555 23.6047 68.263 23.4285 68.629 23.2006V24.3298C68.6428 24.7442 68.5357 25.0895 68.3078 25.3657C68.0868 25.6489 67.7899 25.8596 67.4169 25.9977C67.044 26.1427 66.6469 26.2153 66.2256 26.2153C65.8319 26.2153 65.4659 26.1289 65.1275 25.9563C64.796 25.7836 64.5404 25.5316 64.3609 25.2L61.7504 26.4639C62.1785 27.189 62.7897 27.7726 63.584 28.2146C64.3782 28.6635 65.2518 28.888 66.2049 28.888C67.0267 28.888 67.7899 28.7774 68.4943 28.5564C69.1988 28.3424 69.7927 28.0144 70.2761 27.5723C70.7664 27.1303 71.1015 26.5675 71.281 25.8837C71.3431 25.642 71.3846 25.3968 71.4053 25.1482C71.4329 24.9065 71.4467 24.6475 71.4467 24.3713V12.4165H68.9812V13.0381C68.6013 12.7411 68.1697 12.5132 67.6863 12.3544C67.2097 12.1886 66.6815 12.1057 66.1013 12.1057C65.0308 12.1057 64.0985 12.3613 63.3043 12.8723C62.51 13.3834 61.8919 14.0844 61.4499 14.9753C61.0148 15.8593 60.7973 16.8711 60.7973 18.0106C60.7973 19.1294 61.0114 20.1342 61.4396 21.0252C61.8747 21.9161 62.4789 22.6205 63.2524 23.1385C64.0259 23.6564 64.9272 23.9154 65.9562 23.9154ZM66.412 21.4085C65.8043 21.4085 65.3071 21.2565 64.9203 20.9527C64.5336 20.6488 64.2469 20.2413 64.0605 19.7303C63.874 19.2123 63.7808 18.6391 63.7808 18.0106C63.7808 17.389 63.8775 16.8227 64.0709 16.3117C64.2643 15.7937 64.5612 15.3828 64.9617 15.0788C65.3692 14.7681 65.8872 14.6127 66.5156 14.6127C67.3997 14.6127 68.0316 14.927 68.4114 15.5554C68.7913 16.1769 68.9812 16.9954 68.9812 18.0106C68.9812 19.0258 68.7878 19.8476 68.4011 20.4761C68.0212 21.0977 67.3583 21.4085 66.412 21.4085Z" fill="#007EFF"/>
<path d="M78.1394 23.9154C79.2583 23.9154 80.2424 23.6668 81.0919 23.1695C81.9481 22.6654 82.6147 21.9713 83.0908 21.0874C83.5743 20.1964 83.8161 19.1708 83.8161 18.0106C83.8161 16.8572 83.5784 15.8386 83.1014 14.9546C82.6253 14.0637 81.9586 13.3661 81.1022 12.862C80.2528 12.3578 79.2651 12.1057 78.1394 12.1057C77.0344 12.1057 76.0571 12.3544 75.2077 12.8516C74.3583 13.3489 73.6918 14.0429 73.2083 14.9339C72.7249 15.8178 72.4832 16.8434 72.4832 18.0106C72.4832 19.1639 72.718 20.1861 73.1876 21.0769C73.6641 21.961 74.3272 22.655 75.1766 23.1592C76.0261 23.6634 77.0137 23.9154 78.1394 23.9154ZM78.1394 21.2842C77.2623 21.2842 76.5958 20.9907 76.14 20.4036C75.6911 19.8097 75.4667 19.012 75.4667 18.0106C75.4667 17.0368 75.6808 16.2495 76.109 15.6486C76.5441 15.0409 77.2209 14.737 78.1394 14.737C79.0304 14.737 79.7002 15.034 80.1491 15.6279C80.6049 16.2219 80.8329 17.0161 80.8329 18.0106C80.8329 18.9706 80.6084 19.7579 80.1595 20.3726C79.7175 20.9802 79.0441 21.2842 78.1394 21.2842Z" fill="#007EFF"/>
<path d="M85.0581 10.8626H87.876V8.37634H85.0581V10.8626ZM85.0581 23.6047H87.876V12.4165H85.0581V23.6047Z" fill="#007EFF"/>
<path d="M89.718 28.5772H92.5563V23.2006C92.9226 23.4285 93.3263 23.6047 93.7682 23.729C94.2176 23.8533 94.7043 23.9154 95.2293 23.9154C96.2581 23.9154 97.16 23.6564 97.9333 23.1385C98.7065 22.6205 99.3072 21.9161 99.7353 21.0252C100.171 20.1342 100.388 19.1294 100.388 18.0106C100.388 16.8711 100.168 15.8593 99.7256 14.9753C99.2901 14.0844 98.6756 13.3834 97.8812 12.8723C97.0867 12.3613 96.1548 12.1057 95.0844 12.1057C94.5041 12.1057 93.9726 12.1886 93.4891 12.3544C93.0121 12.5132 92.5839 12.7411 92.2046 13.0381V12.4165H89.718V28.5772ZM94.7735 21.4085C93.8342 21.4085 93.1716 21.0977 92.7842 20.4761C92.3976 19.8476 92.2046 19.0258 92.2046 18.0106C92.2046 16.9954 92.3943 16.1769 92.7744 15.5554C93.161 14.927 93.7927 14.6127 94.6701 14.6127C95.2985 14.6127 95.8129 14.7681 96.2134 15.0788C96.6212 15.3828 96.9215 15.7937 97.1144 16.3117C97.3081 16.8227 97.405 17.389 97.405 18.0106C97.405 18.6391 97.3114 19.2123 97.125 19.7303C96.9386 20.2413 96.6521 20.6488 96.2655 20.9527C95.8788 21.2565 95.3815 21.4085 94.7735 21.4085Z" fill="#007EFF"/>
<path d="M105.493 23.9154C106.957 23.9154 108.104 23.5874 108.932 22.9313C109.761 22.2752 110.175 21.374 110.175 20.2275C110.175 19.3573 109.906 18.6702 109.368 18.166C108.835 17.6618 107.931 17.244 106.653 16.9125C105.783 16.6914 105.133 16.5119 104.705 16.3738C104.285 16.2357 104.005 16.101 103.866 15.9698C103.735 15.8386 103.67 15.6763 103.67 15.4829C103.67 15.1583 103.825 14.9097 104.136 14.737C104.454 14.5643 104.871 14.4953 105.389 14.5298C106.487 14.6127 107.089 15.0823 107.192 15.9387L110.072 15.4207C109.927 14.4055 109.43 13.6009 108.58 13.007C107.731 12.4061 106.647 12.1057 105.327 12.1057C103.974 12.1057 102.893 12.4234 102.084 13.0588C101.277 13.6941 100.872 14.5505 100.872 15.6279C100.872 16.4843 101.152 17.1611 101.712 17.6583C102.271 18.1487 103.235 18.57 104.602 18.9222C105.41 19.1363 106.004 19.309 106.384 19.4402C106.77 19.5714 107.019 19.7061 107.129 19.8442C107.24 19.9754 107.295 20.1516 107.295 20.3726C107.295 20.7247 107.157 21.001 106.881 21.2013C106.605 21.3946 106.211 21.4913 105.7 21.4913C105.078 21.4913 104.564 21.3429 104.157 21.0459C103.756 20.7489 103.497 20.338 103.379 19.8131L100.5 20.2482C100.686 21.4154 101.211 22.3201 102.075 22.9624C102.945 23.5978 104.084 23.9154 105.493 23.9154Z" fill="#007EFF"/>
<path d="M115.373 23.9362C116.181 23.9362 116.885 23.8015 117.487 23.5321C118.088 23.2628 118.591 22.9037 118.999 22.4548V23.6046H121.485V12.4164H118.647V18.0934C118.647 18.7841 118.567 19.3434 118.408 19.7717C118.257 20.193 118.06 20.5141 117.818 20.735C117.576 20.9492 117.318 21.0942 117.041 21.1702C116.765 21.2461 116.506 21.2841 116.264 21.2841C115.664 21.2841 115.197 21.1494 114.866 20.8801C114.541 20.6108 114.306 20.2758 114.161 19.8753C114.016 19.4746 113.93 19.0776 113.902 18.6839C113.875 18.2833 113.861 17.9553 113.861 17.6997V12.4164H111.001V18.6943C111.001 18.8807 111.015 19.1777 111.043 19.5852C111.07 19.9926 111.15 20.445 111.281 20.9423C111.412 21.4326 111.63 21.9057 111.934 22.3615C112.245 22.8173 112.676 23.1937 113.229 23.4907C113.781 23.7876 114.496 23.9362 115.373 23.9362Z" fill="#007EFF"/>
<path d="M123.117 23.6046H125.955V16.8295C125.955 16.1873 126.131 15.6659 126.483 15.2653C126.842 14.8578 127.315 14.6541 127.903 14.6541C128.518 14.6541 128.998 14.8613 129.343 15.2757C129.695 15.6832 129.871 16.2563 129.871 16.9953V23.6046H132.689V16.8295C132.689 16.1873 132.865 15.6659 133.217 15.2653C133.576 14.8578 134.049 14.6541 134.636 14.6541C135.251 14.6541 135.731 14.8613 136.076 15.2757C136.428 15.6832 136.605 16.2563 136.605 16.9953V23.6046H139.422V16.2494C139.422 15.027 139.094 14.0395 138.438 13.2866C137.789 12.527 136.826 12.1471 135.548 12.1471C134.83 12.1471 134.17 12.3025 133.569 12.6132C132.968 12.9241 132.489 13.3488 132.129 13.8875C131.839 13.3627 131.425 12.9414 130.886 12.6237C130.347 12.306 129.677 12.1471 128.877 12.1471C128.199 12.1471 127.578 12.2818 127.012 12.5511C126.445 12.8136 125.976 13.1762 125.603 13.6388V12.4164H123.117V23.6046Z" fill="#007EFF"/>
<path d="M16.2791 0C7.28838 0 0 7.28838 0 16.2791C8.99069 16.2791 16.2791 8.99069 16.2791 0Z" fill="#378FDA"/>
<path d="M16.2791 32.5581C25.2697 32.5581 32.5581 25.2697 32.5581 16.2791C23.5674 16.2791 16.2791 23.5674 16.2791 32.5581Z" fill="#378FDA"/>
<path d="M16.2791 0C25.2697 0 32.5581 7.28838 32.5581 16.2791C23.5674 16.2791 16.2791 8.99069 16.2791 0Z" fill="#007EFF"/>
<path d="M16.2791 32.5581C7.28838 32.5581 -7.8599e-07 25.2697 0 16.2791C8.99069 16.2791 16.2791 23.5674 16.2791 32.5581Z" fill="#007EFF"/>
</g>
<defs>
<clipPath id="clip0_2750_791">
<rect width="140" height="32.5581" fill="white"/>
</clipPath>
</defs>
</svg>
